HIERARCHY
ROOT RootJoint
{
    OFFSET   0.000000   0.000000   0.000000
    CHANNELS 6 Xposition Yposition Zposition Xrotation Yrotation Zrotation
    JOINT pelvis_lowerback
    {
        OFFSET   0.000000   0.093605   0.000000
        CHANNELS 3 Xrotation Yrotation Zrotation
        JOINT lowerback_torso
        {
            OFFSET   0.000000   0.100000   0.000000
            CHANNELS 3 Xrotation Yrotation Zrotation
            JOINT torso_head
            {
                OFFSET   0.000000   0.282350   0.000000
                CHANNELS 3 Xrotation Yrotation Zrotation
                End Site
                {
                    OFFSET   0.000000   0.192650   0.000000
                }
            }
            JOINT rTorso_Clavicle
            {
                OFFSET  -0.001000   0.157500   0.000000
                CHANNELS 3 Xrotation Yrotation Zrotation
                JOINT rShoulder
                {
                    OFFSET  -0.117647   0.000000   0.000000
                    CHANNELS 3 Xrotation Yrotation Zrotation
                    JOINT rElbow
                    {
                        OFFSET  -0.245000   0.000000   0.000000
                        CHANNELS 3 Xrotation Yrotation Zrotation
                        JOINT rWrist
                        {
                            OFFSET  -0.240000   0.000000   0.000000
                            CHANNELS 3 Xrotation Yrotation Zrotation
                            End Site
                            {
                                OFFSET  -0.116353  -0.002500   0.000000
                            }
                        }
                    }
                }
            }
            JOINT lTorso_Clavicle
            {
                OFFSET   0.001000   0.157500   0.000000
                CHANNELS 3 Xrotation Yrotation Zrotation
                JOINT lShoulder
                {
                    OFFSET   0.117647   0.000000   0.000000
                    CHANNELS 3 Xrotation Yrotation Zrotation
                    JOINT lElbow
                    {
                        OFFSET   0.245000   0.000000   0.000000
                        CHANNELS 3 Xrotation Yrotation Zrotation
                        JOINT lWrist
                        {
                            OFFSET   0.240000   0.000000   0.000000
                            CHANNELS 3 Xrotation Yrotation Zrotation
                            End Site
                            {
                                OFFSET   0.116353  -0.002500   0.000000
                            }
                        }
                    }
                }
            }
        }
    }
    JOINT rHip
    {
        OFFSET  -0.100000  -0.051395   0.000000
        CHANNELS 3 Xrotation Yrotation Zrotation
        JOINT rKnee
        {
            OFFSET   0.000000  -0.410000   0.000000
            CHANNELS 3 Xrotation Yrotation Zrotation
            JOINT rAnkle
            {
                OFFSET   0.000000  -0.390000   0.000000
                CHANNELS 3 Xrotation Yrotation Zrotation
                JOINT rToeJoint
                {
                    OFFSET   0.000000  -0.050000   0.130000
                    CHANNELS 3 Xrotation Yrotation Zrotation
                    End Site
                    {
                        OFFSET  -0.010000   0.002000   0.060000
                    }
                }
            }
        }
    }
    JOINT lHip
    {
        OFFSET   0.100000  -0.051395   0.000000
        CHANNELS 3 Xrotation Yrotation Zrotation
        JOINT lKnee
        {
            OFFSET   0.000000  -0.410000   0.000000
            CHANNELS 3 Xrotation Yrotation Zrotation
            JOINT lAnkle
            {
                OFFSET   0.000000  -0.390000   0.000000
                CHANNELS 3 Xrotation Yrotation Zrotation
                JOINT lToeJoint
                {
                    OFFSET   0.000000  -0.050000   0.130000
                    CHANNELS 3 Xrotation Yrotation Zrotation
                    End Site
                    {
                        OFFSET   0.010000   0.002000   0.060000
                    }
                }
            }
        }
    }
}
MOTION
Frames: 17
Frame Time:   0.008333
 -2.288224   0.818832   4.064446  37.332535 -80.663635  37.668580  27.698617   0.364180  -0.574316   0.483782  -0.256994   2.105480  -6.423682   0.189717   0.412063   1.222096  -3.691284   5.168243   1.480990  -0.484381  49.020819   0.006966  57.670180  -0.003810  -1.532954   3.859693  -7.462492   3.071120   3.072446  -2.592736   6.860968  -3.412742 -50.827600   0.004147 -64.699912   0.000066  -1.870682  -5.255199   4.851620 -31.585300   2.398699  -5.119235  59.805984  -0.007996  -0.011411 -31.823883  -4.402235  -1.605498  -2.716183  -0.000224   0.000302 -36.537120  -1.973120   2.821364  67.841469  -0.002545  -0.030087 -23.309962   4.188604   5.237835  -9.011540   0.002352  -0.003355
 -2.287493   0.810577   4.064168  37.460297 -80.859779  37.626687  28.049919   0.409751  -0.514331   0.441287  -0.089334   1.969958  -6.578688   0.205484   0.467072   0.866376  -3.235809   5.237756   0.986439  -0.248368  49.067151   0.008229  59.389642  -0.006513  -1.698802   2.947683  -7.375790   2.848375   2.741107  -2.622941   6.287263  -3.459469 -50.462238  -0.002089 -66.403682  -0.001494  -2.138032  -4.434676   4.604838 -32.525877   2.374669  -4.976278  61.895397  -0.008290  -0.012437 -33.174237  -4.208783  -1.509926  -2.276977  -0.000478   0.000138 -37.722184  -2.106455   2.596560  69.823219  -0.002137  -0.031307 -22.533121   4.334236   5.330155  -8.957708   0.001920  -0.002845
 -2.286917   0.802746   4.063829  37.497576 -81.015187  37.619662  28.333988   0.412944  -0.570336   0.304337   0.039934   1.819378  -6.710406   0.219157   0.514697   0.437812  -2.724381   5.267635   0.434700   0.052800  49.106491   0.006904  61.084506  -0.007185  -1.803771   2.495196  -7.239228   2.507295   2.329353  -2.520301   5.627194  -3.571080 -50.027545  -0.014344 -68.078049  -0.007892  -2.354746  -4.041805   4.419338 -33.399744   2.383234  -4.959574  63.862110  -0.008418  -0.012871 -34.473114  -4.041630  -1.416209  -1.838218  -0.000671  -0.000046 -38.800600  -2.354784   2.523732  72.141496  -0.007115  -0.029398 -22.261440   4.766130   5.475584 -14.083249   0.017867   0.000575
 -2.286531   0.795321   4.063657  37.413519 -81.119445  37.537728  28.541988   0.396051  -0.615602   0.084889   0.141384   1.664933  -6.836454   0.231847   0.550522  -0.028945  -2.183413   5.253597  -0.142261   0.377633  49.117601   0.003793  62.696002  -0.006041  -1.875568   2.277563  -7.128604   2.105483   1.867801  -2.374438   4.932875  -3.724502 -49.585942  -0.029633 -69.674267  -0.017894  -2.540741  -3.893967   4.324831 -34.205195   2.404019  -5.008652  65.702604  -0.007972  -0.012681 -35.687412  -3.892455  -1.328214  -1.457712  -0.000714  -0.000109 -39.808640  -2.553492   2.443777  74.240356  -0.009973  -0.025776 -21.968813   4.979348   5.549245 -18.572125   0.024264   0.009105
 -2.286410   0.788249   4.063643  37.219638 -81.200190  37.355035  28.678150   0.375185  -0.639308  -0.193826   0.229293   1.525293  -6.960226   0.243959   0.583385  -0.507907  -1.636505   5.212710  -0.721406   0.708286  49.110443  -0.000511  64.216784  -0.003254  -1.928175   2.187048  -7.049314   1.682570   1.388808  -2.213830   4.239186  -3.900752 -49.157194  -0.046321 -71.183335  -0.030340  -2.707338  -3.884606   4.287713 -34.932730   2.434489  -5.076570  67.431442  -0.007159  -0.012077 -36.814479  -3.758278  -1.247173  -1.157383  -0.000657  -0.000090 -40.742760  -2.718712   2.357556  76.184148  -0.011221  -0.022031 -21.678102   5.142328   5.605913 -22.544056   0.025977   0.015401
 -2.286576   0.781507   4.063774  36.947722 -81.274266  37.094799  28.749513   0.355580  -0.648096  -0.514597   0.310366   1.402789  -7.083032   0.255430   0.615414  -0.981845  -1.098734   5.160253  -1.287554   1.034878  49.095529  -0.005538  65.646716   0.000810  -1.968824   2.173042  -6.991868   1.261520   0.913293  -2.050052   3.566027  -4.086351 -48.748311  -0.063383 -72.603108  -0.044261  -2.860322  -3.954613   4.285271 -35.583373   2.469696  -5.151295  69.061195  -0.006247  -0.011360 -37.857301  -3.637579  -1.172144  -0.942276  -0.000555  -0.000063 -41.600915  -2.862060   2.268470  78.002634  -0.011542  -0.018685 -21.394969   5.285678   5.655360 -26.079464   0.025284   0.019520
 -2.287027   0.775087   4.064038  36.627383 -81.350220  36.784586  28.764005   0.339296  -0.647360  -0.864124   0.387713   1.295567  -7.205098   0.266192   0.646563  -1.439896  -0.579595   5.105099  -1.831313   1.351305  49.079182  -0.010934  66.988177   0.005728  -2.001706   2.206977  -6.947302   0.855142   0.453719  -1.888631   2.924093  -4.272700 -48.362034  -0.080145 -73.934960  -0.058879  -3.002919  -4.069677   4.304478 -36.161090   2.507592  -5.229173  70.599256  -0.005376  -0.010676 -38.820057  -3.527569  -1.102709  -0.809853  -0.000445  -0.000046 -42.384835  -2.989374   2.178363  79.712771  -0.011359  -0.015876 -21.120583   5.416002   5.699827 -29.231461   0.023317   0.022053
 -2.287131   0.771130   4.064718  35.771994 -81.509606  36.106803  28.952272   0.299372  -0.760670  -1.137816   0.446370   1.122963  -7.201935   0.161014   0.634394  -2.148305  -0.081944   4.537178  -2.149430   1.557693  49.251266  -0.035777  70.097470   0.018554  -2.250580   0.886201  -6.370994   0.421612  -0.074260  -1.264189   2.242298  -4.551388 -47.834019  -0.138929 -76.694326  -0.094862  -3.278496  -3.079319   3.863376 -36.471957   2.390987  -5.587172  71.682071  -0.006381  -0.011841 -39.130789  -3.721033  -0.551225  -1.130994   0.000909   0.001648 -42.763895  -3.099753   1.863416  80.624766  -0.010965  -0.014394 -19.297154   5.779439   5.315112 -37.428496   0.006658   0.026092
 -2.287270   0.769379   4.065620  35.143264 -81.642900  35.728570  29.071041   0.237495  -0.936110  -1.451216   0.477899   0.925428  -7.146149   0.059790   0.615029  -2.921681   0.447116   3.828779  -2.562529   1.828038  49.343032  -0.072971  73.147661   0.039668  -2.406727   0.306152  -5.799085  -0.105633  -0.644729  -0.456208   1.483440  -4.880409 -47.225015  -0.222683 -79.401273  -0.154379  -3.490814  -2.753468   3.478317 -36.620788   2.278249  -6.031721  72.292021  -0.006416  -0.011437 -39.096425  -3.895112  -0.099054  -1.580746   0.002076   0.003750 -43.275723  -3.127048   1.445567  81.539023  -0.010384  -0.013505 -17.788690   6.083319   4.885533 -39.817714  -0.000591   0.021602
 -2.287850   0.769095   4.066723  35.054517 -81.765801  35.874189  29.019313   0.184311  -1.115926  -1.844841   0.508960   0.724156  -7.077732  -0.033914   0.591872  -3.696669   0.978685   3.052548  -3.008137   2.105885  49.365382  -0.128033  76.035907   0.079082  -2.513751   0.064939  -5.327175  -0.648465  -1.207726   0.427209   0.721005  -5.208680 -46.584183  -0.348314 -81.965374  -0.259222  -3.667034  -2.730300   3.235394 -36.665875   2.171056  -6.452811  72.561715  -0.005721  -0.010017 -38.855143  -4.047162   0.282501  -2.106631   0.002883   0.005781 -43.691077  -3.106315   1.052141  82.130204  -0.009254  -0.012173 -16.016140   6.385549   4.496101 -42.407019  -0.005919   0.018344
 -2.288968   0.769799   4.068102  35.658756 -81.918280  36.696698  28.795652   0.149584  -1.305802  -2.330688   0.550757   0.516743  -7.016815  -0.120577   0.566663  -4.447451   1.495345   2.246576  -3.459119   2.374516  49.341103  -0.210029  78.753598   0.147663  -2.594762  -0.013925  -4.956523  -1.172419  -1.737402   1.335845  -0.012766  -5.519481 -45.940746  -0.559890 -84.376410  -0.454540  -3.822200  -2.839500   3.112250 -36.646899   2.075473  -6.849176  72.600387  -0.004668  -0.008151 -38.483388  -4.177879   0.611328  -2.682615   0.003315   0.007805 -43.987763  -3.118103   0.666882  82.462414  -0.008173  -0.010735 -14.208968   6.605254   4.168477 -44.972599  -0.010302   0.019980
 -2.290639   0.771204   4.069735  36.768746 -82.094252  38.006947  28.428491   0.123428  -1.497182  -2.897178   0.597377   0.312037  -6.970157  -0.201431   0.541634  -5.162574   1.988741   1.437910  -3.901932   2.627806  49.287384  -0.334528  81.304247   0.261454  -2.659893  -0.000809  -4.674291  -1.667177  -2.230397   2.242129  -0.708159  -5.810528 -45.309869  -1.013093 -86.637076  -0.896006  -3.962901  -3.013007   3.076124 -36.563397   1.981934  -7.225214  72.474468  -0.003419  -0.006043 -38.024172  -4.290324   0.897830  -3.306547   0.003429   0.009789 -44.195175  -3.130301   0.295818  82.648893  -0.007020  -0.009229 -12.458573   6.793839   3.860763 -47.033630  -0.013170   0.021405
 -2.292792   0.773278   4.071571  38.108872 -82.284780  39.559120  27.971956   0.092241  -1.704363  -3.520625   0.638152   0.107584  -6.940564  -0.277542   0.517421  -5.838296   2.457760   0.650285  -4.330483   2.864419  49.218262  -0.533941  83.693937   0.452873  -2.714065   0.069046  -4.470685  -2.134558  -2.696188   3.127330  -1.367321  -6.085694 -44.699094  -2.861931 -88.752120  -2.737381  -4.092093  -3.220142   3.106558 -36.393562   1.898004  -7.610814  72.206159  -0.002066  -0.003775 -37.482495  -4.389734   1.142421  -3.988640   0.003239   0.011724 -44.398204  -3.118547  -0.095837  82.889719  -0.006240  -0.008286 -10.954868   6.944112   3.556580 -46.627019  -0.009481   0.015939
 -2.295261   0.780093   4.073429  37.453821 -82.621892  39.443649  27.721363  -0.156393  -2.183610  -3.577245   0.617103  -0.258244  -6.615843  -0.498044   0.590242  -6.607768   2.791595  -0.861545  -4.113453   3.420640  49.577040  -0.792797  86.563771   0.687445  -2.810364  -0.233560  -4.153326  -2.340250  -2.887751   4.825115  -1.892164  -6.383002 -44.320329 -176.820328 -89.045669 -176.682589  -4.210018  -3.500271   2.911297 -35.692168   1.811543  -8.358181  71.318641   0.001087   0.001284 -35.557427  -4.667422   1.953566  -6.120652   0.012475   0.028611 -43.691886  -3.236540  -0.941077  81.920221  -0.000255  -0.000752  -8.928432   7.082987   3.042821 -46.301713  -0.006218   0.011169
 -2.298130   0.790076   4.075051  37.715771 -82.871431  40.258903  27.276991  -0.395413  -2.729073  -3.530511   0.597446  -0.681552  -6.213030  -0.711450   0.649225  -7.246777   2.976396  -2.505394  -3.844467   3.905919  49.828354  -3.001631  89.323078   2.870363  -2.879379  -0.242437  -3.622402  -2.462654  -2.886439   6.662381  -2.299793  -6.576440 -43.852182 -179.175263 -86.956015 -179.026825  -4.313719  -3.890060   2.592015 -34.917960   1.638409  -9.095214  69.846088   0.006024   0.008163 -32.891861  -4.952323   2.661042  -4.779689   0.004916   0.009833 -42.800050  -3.385928  -1.793602  80.233502   0.008050   0.010188  -6.477325   7.202645   2.560661 -46.041448  -0.004008   0.007483
 -2.301414   0.802095   4.076303  38.716082 -82.941346  41.787865  26.627579  -0.634416  -3.296239  -3.537546   0.565201  -1.119889  -5.805491  -0.911177   0.697629  -7.803299   3.041164  -4.194950  -3.554728   4.296893  49.978953 -179.247861  88.081739 179.093446  -2.932403  -0.170143  -3.162369  -2.553019  -2.758804   8.531329  -2.636236  -6.688120 -43.334078 -179.569820 -84.995756 -179.414950  -4.408411  -4.281772   2.316318 -34.043830   1.504731  -9.750467  67.827382   0.009291   0.013550 -29.960900  -5.080759   3.267053  -8.366413   0.015585   0.031500 -41.873543  -3.561545  -2.600694  78.053059   0.015224   0.021048  -3.719253   7.313417   2.103826 -45.833216  -0.002574   0.004946
 -2.305164   0.815335   4.077254  40.389217 -82.895203  43.998425  25.802909  -0.851186  -3.909432  -3.637147   0.532320  -1.585469  -5.415099  -1.096843   0.735355  -8.308716   3.032473  -5.888718  -3.264998   4.614766  50.054102 -179.773987  85.651959 179.600729  -2.975652  -0.088095  -2.821767  -2.635604  -2.552032  10.382556  -2.926510  -6.742879 -42.791915 -179.712845 -83.162443 -179.555519  -4.496877  -4.648517   2.124222 -33.119738   1.286662 -10.343030  65.565874   0.013063   0.017403 -26.710478  -5.196466   3.847964 -12.216456   0.023415   0.051510 -40.911528  -3.728982  -3.365839  75.519370   0.020616   0.030927  -0.746700   7.407648   1.662075 -45.666617  -0.001633   0.003193
